<?xml version="1.0" encoding="utf-8"?>
<!-- Generator: Adobe Illustrator 16.0.1, SVG Export Plug-In . SVG Version: 6.00 Build 0)  -->
<!DOCTYPE svg PUBLIC "-//W3C//DTD SVG 1.1//EN" "http://www.w3.org/Graphics/SVG/1.1/DTD/svg11.dtd">
<svg version="1.1" id="Layer_1" xmlns="http://www.w3.org/2000/svg" xmlns:xlink="http://www.w3.org/1999/xlink" x="0px" y="0px"
	 width="116.927px" height="56.263px" viewBox="0 0 116.927 56.263" enable-background="new 0 0 116.927 56.263"
	 xml:space="preserve">
<g>
	<g>
		<path fill="#FEF5B9" d="M31.586,6.794L30.529,4.71c-0.604-1.178-1.601-1.933-3.714-1.933h-4.681c-1.208,0-1.751,0.483-2.053,1.751
			l-1.51,5.918h5.254c2.325,0,2.778-1.087,2.99-1.54l0.423-0.936h1.63l-1.933,7.489h-1.63c0.06-0.333,0.121-0.815,0.121-1.238
			c0-0.815-0.271-1.57-1.54-1.57h-5.888l-2.023,7.61c-0.03,0.211-0.061,0.393-0.061,0.543c0,1.329,1.54,1.782,2.386,1.812
			l-0.453,1.45H7.881l0.362-1.45c1.208-0.09,2.718-0.06,3.322-2.385L15.491,4.65c0.03-0.181,0.06-0.332,0.06-0.513
			c0-1.872-2.989-2.053-5.013-2.053H9.331c-3.865,0.03-6.854,2.053-6.854,6.16c0,1.691,1.087,3.896,3.08,3.896
			c1.601,0,1.54-1.359,1.691-2.537c0.181-1.389,1.117-2.929,2.809-2.929c1.147,0,1.872,1.087,1.872,2.174
			c0,2.869-2.748,5.314-5.918,5.314C2.506,14.162,0,11.777,0,8.334C0,3.261,3.835,0,9.059,0c3.865,0,6.824,0.513,10.72,0.513H32.19
			l0.936,5.949L31.586,6.794z"/>
		<path fill="#FEF5B9" d="M43.229,21.107c-0.06,0.272-0.09,0.483-0.09,0.665c0,0.845,0.604,0.875,1.238,0.936l-0.362,1.359h-5.405
			l0.181-0.785c-0.574,0.362-2.144,1.147-4.016,1.147c-2.446,0-4.167-0.997-4.167-3.17c0-0.393,0.06-0.815,0.181-1.299l1.57-6.221
			c0.03-0.09,0.03-0.181,0.03-0.271c0-0.876-1.238-0.846-1.721-0.876l0.272-1.178c0.785-0.151,1.691-0.453,2.537-0.845
			c0.906-0.393,1.751-0.876,2.476-1.359h1.359c0,0-2.174,7.942-2.688,10.237c-0.121,0.513-0.181,0.936-0.181,1.298
			c0,1.298,0.694,1.751,1.842,1.751c1.48,0,2.688-0.906,3.141-1.449l1.782-7.248c0.03-0.121,0.03-0.211,0.03-0.302
			c0-0.876-1.057-0.906-1.661-0.906l0.242-1.178c0.846-0.181,1.812-0.513,2.718-0.906c0.875-0.393,1.691-0.875,2.234-1.298h1.419
			L43.229,21.107z"/>
		<path fill="#FEF5B9" d="M57.539,11.082h-3.382l-2.416,9.059c-0.09,0.333-0.121,0.634-0.121,0.906c0,0.906,0.513,1.238,1.147,1.238
			c0.815,0,1.51-0.634,1.51-0.634l0.483,0.604c-0.755,0.966-2.205,2.205-4.016,2.205c-1.842,0-2.99-0.785-2.99-2.567
			c0-0.393,0.061-0.845,0.181-1.329l2.476-9.633H48.63l0.393-1.661c1.057-0.182,2.295-0.906,3.352-1.903
			c0.936-0.875,1.721-1.962,2.235-3.11h1.238l-0.875,3.533c-0.061,0.272-0.121,0.483-0.121,0.695c0,0.453,0.242,0.725,0.846,0.725
			h2.325L57.539,11.082z"/>
		<path fill="#FEF5B9" d="M70.642,21.107c-0.061,0.272-0.091,0.483-0.091,0.665c0,0.845,0.604,0.875,1.238,0.936l-0.362,1.359
			h-5.405l0.182-0.785c-0.574,0.362-2.145,1.147-4.017,1.147c-2.446,0-4.167-0.997-4.167-3.17c0-0.393,0.06-0.815,0.181-1.299
			l1.57-6.221c0.03-0.09,0.03-0.181,0.03-0.271c0-0.876-1.238-0.846-1.722-0.876l0.272-1.178c0.785-0.151,1.691-0.453,2.536-0.845
			c0.906-0.393,1.752-0.876,2.477-1.359h1.358c0,0-2.174,7.942-2.688,10.237c-0.12,0.513-0.181,0.936-0.181,1.298
			c0,1.298,0.694,1.751,1.842,1.751c1.479,0,2.688-0.906,3.141-1.449l1.781-7.248c0.03-0.121,0.03-0.211,0.03-0.302
			c0-0.876-1.057-0.906-1.66-0.906l0.241-1.178c0.846-0.181,1.812-0.513,2.718-0.906c0.876-0.393,1.691-0.875,2.234-1.298h1.42
			L70.642,21.107z"/>
		<path fill="#FEF5B9" d="M101.167,6.915c-2.355,0-1.993-2.386-5.164-2.386c-6.764,0-13.981,7.67-14.947,11.565l-1.238,4.892
			c-0.061,0.302-0.182,0.634-0.182,0.966c0,0.725,1.147,0.755,1.691,0.846l-0.362,1.268h-7.609l0.302-1.268
			c1.51-0.211,1.933-0.091,2.295-1.601l1.812-7.187c0.061-0.242,0.091-0.453,0.091-0.694c0-0.997-0.876-0.997-1.631-0.966
			l0.302-1.238c0.785-0.181,1.661-0.483,2.477-0.815c0.937-0.393,1.812-0.875,2.537-1.389h1.328l-0.483,1.873
			c2.688-3.835,8.153-8.637,15.371-8.637c3.714,0,5.224,1.812,5.224,3.02C102.979,6.16,102.133,6.915,101.167,6.915z"/>
		<path fill="#FEF5B9" d="M99.715,16.064H89.117c-0.212,0.725-0.333,1.419-0.363,2.054c-0.12,2.899,1.45,4.258,3.292,4.258
			c1.872,0,4.017-1.782,4.952-3.322l1.933,0.785c-1.026,1.963-3.926,4.56-7.911,4.56c-4.017,0-6.734-2.537-6.613-6.13
			c0.211-5.133,4.62-9.361,9.693-9.361c4.74,0,6.221,3.141,6.1,6.009C100.168,15.582,100.017,16.064,99.715,16.064z M94.008,10.78
			c-1.601,0-3.05,1.479-4.017,3.261h5.617c0.302,0,0.604-0.362,0.634-0.785C96.303,11.596,95.367,10.78,94.008,10.78z"/>
		<path fill="#FEF5B9" d="M31.586,38.023l-1.057-2.084c-0.604-1.178-1.601-1.933-3.714-1.933h-4.681
			c-1.208,0-1.751,0.483-2.053,1.752l-1.51,5.918h5.254c2.325,0,2.778-1.087,2.99-1.54l0.423-0.936h1.63l-1.933,7.488h-1.63
			c0.06-0.332,0.121-0.815,0.121-1.238c0-0.814-0.271-1.569-1.54-1.569h-5.888l-2.023,7.609c-0.03,0.211-0.061,0.393-0.061,0.543
			c0,1.329,1.54,1.782,2.386,1.812l-0.453,1.449H7.881l0.362-1.449c1.208-0.091,2.718-0.061,3.322-2.386l3.926-15.582
			c0.03-0.181,0.06-0.332,0.06-0.513c0-1.873-2.989-2.054-5.013-2.054H9.331c-3.865,0.03-6.854,2.054-6.854,6.16
			c0,1.691,1.087,3.896,3.08,3.896c1.601,0,1.54-1.359,1.691-2.537c0.181-1.389,1.117-2.929,2.809-2.929
			c1.147,0,1.872,1.087,1.872,2.174c0,2.869-2.748,5.315-5.918,5.315C2.506,45.392,0,43.006,0,39.563
			c0-5.073,3.835-8.335,9.059-8.335c3.865,0,6.824,0.514,10.72,0.514H32.19l0.936,5.949L31.586,38.023z"/>
		<path fill="#FEF5B9" d="M41.509,51.279c-0.604,2.386,0.815,2.477,1.601,1.993l-0.453,1.691c-0.815,0.483-1.933,0.725-2.929,0.725
			c-1.872,0-2.355-0.846-2.476-1.299c-0.453,0.303-1.812,1.269-4.228,1.269c-2.778,0-4.65-1.117-4.65-3.473
			c0-3.956,3.503-5.314,9.271-6.583l1.661-0.362l0.271-1.117c0.423-1.631-0.242-2.355-1.268-2.355c-0.906,0-1.54,0.634-2.144,1.358
			c-0.815,0.937-1.54,2.023-2.748,2.023c-1.117,0-1.57-0.543-1.57-1.268c0-1.782,2.929-3.806,6.523-3.806
			c3.593,0,5.586,1.51,4.952,4.047L41.509,51.279z M38.127,47.596c-3.533,0.876-5.919,1.812-5.919,3.714
			c0,1.238,0.755,2.054,2.386,2.054c2.023,0,2.959-1.208,3.593-3.684l0.574-2.235L38.127,47.596z"/>
		<path fill="#FEF5B9" d="M55.637,42.312h-3.382l-2.416,9.059c-0.09,0.332-0.121,0.635-0.121,0.906c0,0.905,0.513,1.238,1.147,1.238
			c0.815,0,1.51-0.635,1.51-0.635l0.483,0.604c-0.755,0.966-2.205,2.204-4.016,2.204c-1.842,0-2.99-0.785-2.99-2.566
			c0-0.393,0.061-0.846,0.181-1.329l2.476-9.633h-1.782l0.393-1.661c1.057-0.181,2.295-0.905,3.352-1.902
			c0.936-0.876,1.721-1.963,2.235-3.11h1.238l-0.875,3.533c-0.061,0.271-0.121,0.483-0.121,0.694c0,0.453,0.242,0.725,0.846,0.725
			h2.325L55.637,42.312z"/>
		<path fill="#FEF5B9" d="M72.545,37.419c-1.329,0-1.782-0.694-2.054-1.479c-0.241-0.694-1.087-1.419-2.386-1.419
			c-1.842,0-4.046,1.601-5.013,4.952l-0.604,2.144c0.846-0.694,2.778-1.449,4.438-1.449c2.114,0,3.865,1.117,3.865,3.382
			c0,0.362-0.06,0.785-0.181,1.238l-1.902,7.429c-0.061,0.302-0.151,0.634-0.151,0.966c0,0.726,1.117,0.756,1.631,0.846
			l-0.332,1.269h-5.707l2.627-10.116c0.091-0.302,0.12-0.604,0.12-0.846c0-1.178-0.845-1.69-2.022-1.69
			c-0.635,0-2.054,0.634-3.021,1.298l-2.022,8.184c-0.061,0.242-0.091,0.453-0.091,0.635c0,0.875,0.725,1.026,1.631,1.178
			l-0.332,1.358H53.25l0.362-1.238c1.057-0.181,1.902-0.241,2.416-2.234l3.081-11.928c1.087-4.288,4.801-7.217,9.36-7.217
			c3.865,0,5.738,1.569,5.738,3.08C74.207,36.725,73.361,37.419,72.545,37.419z"/>
		<path fill="#FEF5B9" d="M87.399,47.294H76.8c-0.212,0.725-0.333,1.419-0.363,2.053c-0.12,2.899,1.45,4.258,3.292,4.258
			c1.872,0,4.017-1.781,4.952-3.321l1.933,0.785c-1.026,1.963-3.926,4.56-7.911,4.56c-4.017,0-6.734-2.536-6.613-6.13
			c0.211-5.134,4.62-9.361,9.693-9.361c4.74,0,6.221,3.141,6.1,6.01C87.852,46.811,87.701,47.294,87.399,47.294z M81.692,42.009
			c-1.601,0-3.05,1.48-4.017,3.262h5.617c0.302,0,0.604-0.362,0.634-0.785C83.987,42.824,83.05,42.009,81.692,42.009z"/>
		<path fill="#FEF5B9" d="M115.116,38.144c-2.355,0-1.993-2.385-5.164-2.385c-6.764,0-13.981,7.67-14.947,11.565l-1.238,4.892
			c-0.061,0.302-0.182,0.634-0.182,0.966c0,0.726,1.147,0.756,1.691,0.846l-0.362,1.269h-7.609l0.302-1.269
			c1.51-0.211,1.933-0.09,2.295-1.601l1.812-7.187c0.061-0.241,0.091-0.453,0.091-0.694c0-0.997-0.876-0.997-1.631-0.967
			l0.302-1.237c0.785-0.182,1.661-0.483,2.477-0.815c0.937-0.393,1.812-0.876,2.536-1.39h1.329l-0.483,1.872
			c2.688-3.835,8.153-8.636,15.371-8.636c3.714,0,5.224,1.812,5.224,3.02C116.927,37.389,116.082,38.144,115.116,38.144z"/>
		<path fill="#FEF5B9" d="M101.948,56.263c-1.328,0-2.597-0.906-2.597-2.325c0-1.54,1.479-2.628,2.929-2.628
			c1.329,0,2.598,0.937,2.598,2.355C104.877,55.205,103.397,56.263,101.948,56.263z"/>
	</g>
</g>
</svg>
