<?xml version="1.0" encoding="utf-8"?>
<!-- Generator: Adobe Illustrator 16.0.1, SVG Export Plug-In . SVG Version: 6.00 Build 0)  -->
<!DOCTYPE svg PUBLIC "-//W3C//DTD SVG 1.1//EN" "http://www.w3.org/Graphics/SVG/1.1/DTD/svg11.dtd">
<svg version="1.1" id="Layer_1" xmlns="http://www.w3.org/2000/svg" xmlns:xlink="http://www.w3.org/1999/xlink" x="0px" y="0px"
	 width="307.045px" height="25.417px" viewBox="0 -1 307.045 25.417" enable-background="new 0 -1 307.045 25.417"
	 xml:space="preserve">
<polyline fill="#FEF5B9" points="29.977,9.69 48.255,9.69 48.255,13.723 29.977,13.723 "/>
<path fill="#FEF5B9" d="M72.706,24.416l-6.251-9.561h-0.181l-6.251,9.561H54.68l8.722-13.047L55.299-0.988h5.305l5.671,8.574h0.181
	l5.668-8.574h5.307l-8.104,12.355l8.725,13.048H72.706L72.706,24.416z"/>
<path fill="#FEF5B9" d="M103.188,1.228c1.769,1.479,2.654,3.756,2.654,6.833c0,3.079-0.904,5.33-2.708,6.759
	c-1.807,1.43-4.572,2.145-8.305,2.145h-4.508v7.451h-4.287V-0.988h8.723C98.609-0.988,101.419-0.249,103.188,1.228z M100.154,11.713
	c0.858-0.908,1.29-2.24,1.29-3.996c0-1.757-0.547-2.999-1.637-3.726c-1.089-0.728-2.796-1.09-5.122-1.09h-4.361v10.174h4.979
	C97.676,13.076,99.293,12.621,100.154,11.713z"/>
<path fill="#FEF5B9" d="M162.772,7.262c0,4.19-1.83,6.831-5.488,7.923l6.648,9.23h-5.451l-6.069-8.541h-5.633v8.541h-4.287V-0.988
	h9.448c3.875,0,6.65,0.655,8.32,1.962C161.937,2.282,162.772,4.377,162.772,7.262z M157.067,10.858
	c0.871-0.75,1.309-1.955,1.309-3.616c0-1.658-0.447-2.797-1.344-3.415c-0.897-0.618-2.497-0.926-4.797-0.926h-5.452v9.084h5.34
	C154.547,11.985,156.194,11.61,157.067,10.858z"/>
<path fill="#FEF5B9" d="M172.87-0.988h4.285v25.403h-4.285V-0.988z"/>
<path fill="#FEF5B9" d="M192.412,24.416h-4.289V-0.988h6.688l7.666,15.952l7.666-15.952h6.649v25.403h-4.287V4.574l-8.866,17.623
	h-2.398l-8.83-17.623L192.412,24.416L192.412,24.416z"/>
<path fill="#FEF5B9" d="M274.491-0.988h4.287v25.403h-4.649L259.737,5.883v18.533h-4.288V-0.988h4.288l14.754,18.97V-0.988
	L274.491-0.988z"/>
<path fill="#FEF5B9" d="M299.344,2.938v21.478h-4.288V2.938h-7.707v-3.926h19.696v3.926H299.344z"/>
<path fill="#FEF5B9" d="M114.811-0.988h18.278v4.036h-18.278 M29.977-0.988h18.278v4.033H29.977 M114.811-0.988h18.278v4.036
	h-18.278 M29.977,9.69h18.278v4.033H29.977 M29.977,9.69h18.278v4.033H29.977 M114.811,9.69h18.278v4.037h-18.278 M114.811,20.38
	h18.278v4.037h-18.278"/>
<path fill="#FEF5B9" d="M227.765,20.38h18.279v4.037h-18.279"/>
<g>
	<g>
		<path fill="#FEF5B9" d="M1.428,0.271H0.017V-1h4.286v1.271H2.889v7.233H1.428V0.271z"/>
		<path fill="#FEF5B9" d="M6.577,7.504V-1h1.461v3.462h1.555V-1h1.461v8.504H9.593V3.733H8.038v3.771H6.577z"/>
		<path fill="#FEF5B9" d="M13.881,7.504V-1h3.91v1.271h-2.45v2.191h1.885v1.271h-1.885v2.499h2.615v1.271L13.881,7.504L13.881,7.504
			z"/>
	</g>
</g>
<polyline fill="#FEF5B9" points="0,20.38 48.255,20.38 48.255,24.416 0,24.416 "/>
<polyline fill="#FEF5B9" points="227.765,-0.988 246.043,-0.988 246.043,3.048 227.765,3.048 "/>
<polyline fill="#FEF5B9" points="227.765,-0.988 246.043,-0.988 246.043,3.048 227.765,3.048 "/>
<polyline fill="#FEF5B9" points="227.765,9.69 246.043,9.69 246.043,13.727 227.765,13.727 "/>
</svg>
