<?xml version="1.0" encoding="utf-8"?>
<!-- Generator: Adobe Illustrator 16.0.1, SVG Export Plug-In . SVG Version: 6.00 Build 0)  -->
<!DOCTYPE svg PUBLIC "-//W3C//DTD SVG 1.1//EN" "http://www.w3.org/Graphics/SVG/1.1/DTD/svg11.dtd">
<svg version="1.1" id="Layer_1" xmlns="http://www.w3.org/2000/svg" xmlns:xlink="http://www.w3.org/1999/xlink" x="0px" y="0px"
	 width="26.868px" height="18.025px" viewBox="-0.001 0 26.868 18.025" enable-background="new -0.001 0 26.868 18.025"
	 xml:space="preserve">
<path fill="#FEF5B9" d="M26.865,18.018c-3.295,0-6.578,0-9.869,0c0-0.851,0-1.693,0-2.55c0.221,0,0.436,0.013,0.647-0.004
	c0.315-0.021,0.631-0.053,0.942-0.102c0.252-0.038,0.408-0.205,0.449-0.454c0.045-0.271,0.096-0.549,0.098-0.823
	c0.006-3.666,0.005-7.332,0.005-10.997c0-0.014-0.001-0.026-0.022-0.046c-0.052,0.164-0.105,0.328-0.156,0.492
	c-0.92,3.004-1.84,6.009-2.76,9.014c-0.547,1.788-1.097,3.576-1.642,5.365c-0.026,0.084-0.06,0.111-0.146,0.111
	c-1.334-0.003-2.668-0.003-4.002-0.001c-0.078,0-0.115-0.018-0.14-0.101c-0.677-2.337-1.357-4.673-2.038-7.008
	C7.688,9.048,7.143,7.18,6.598,5.312C6.392,4.604,6.187,3.897,5.98,3.19C5.969,3.153,5.957,3.115,5.933,3.038
	c-0.006,0.065-0.01,0.092-0.01,0.119c0,3.648-0.001,7.296,0.006,10.944c0,0.272,0.055,0.55,0.104,0.819
	c0.043,0.237,0.204,0.394,0.438,0.438c0.271,0.051,0.547,0.085,0.822,0.104c0.253,0.019,0.508,0.003,0.77,0.003
	c0,0.857,0,1.7,0,2.551c-2.689,0-5.372,0-8.064,0c0-0.847,0-1.688,0-2.548c0.253,0,0.503,0.009,0.751-0.003
	c0.285-0.013,0.574-0.021,0.854-0.07c0.427-0.076,0.569-0.235,0.635-0.664c0.032-0.211,0.057-0.429,0.057-0.642
	C2.3,10.697,2.301,7.304,2.295,3.912c-0.001-0.27-0.054-0.541-0.098-0.809C2.153,2.838,1.974,2.687,1.72,2.64
	C1.493,2.597,1.261,2.566,1.03,2.557C0.69,2.543,0.351,2.552,0.001,2.552c0-0.849,0-1.688,0-2.549c0.046,0,0.098,0,0.148,0
	c3.263,0,6.526,0.001,9.789-0.004c0.124,0,0.166,0.042,0.198,0.152c0.943,3.328,1.889,6.656,2.834,9.982
	c0.054,0.188,0.109,0.374,0.175,0.602c0.053-0.169,0.096-0.302,0.137-0.437c1.045-3.396,2.09-6.791,3.133-10.187
	c0.024-0.084,0.057-0.112,0.146-0.112c3.401,0.002,6.803,0.002,10.204,0.002c0.031,0,0.062,0,0.102,0c0,0.851,0,1.688,0,2.547
	c-0.049,0-0.097-0.001-0.144,0c-0.435,0.01-0.868,0.016-1.302,0.03c-0.119,0.004-0.238,0.032-0.355,0.062
	c-0.248,0.06-0.418,0.213-0.452,0.471c-0.046,0.344-0.096,0.692-0.097,1.039c-0.008,2.363-0.005,4.727-0.005,7.09
	c0,0.872-0.009,1.745,0.005,2.618c0.006,0.347,0.051,0.693,0.1,1.039c0.035,0.254,0.196,0.422,0.453,0.466
	c0.268,0.047,0.537,0.084,0.809,0.099c0.326,0.017,0.651,0.003,0.986,0.003C26.865,16.32,26.865,17.164,26.865,18.018z"/>
</svg>
